v -5 -5 0
v 5 -5 0
v 5 5 0
v -5 5 0
v 0 0 5
v -0.1612288827057955 3.11477839567299 3.4520183688124493
v 1.5859577148226882 3.11477839567299 3.4520183688124493
v 1.5859577148226882 4.8619649932014735 3.4520183688124493
v -0.1612288827057955 4.8619649932014735 3.4520183688124493
v -0.1612288827057955 3.11477839567299 5.1992049663409325
v 1.5859577148226882 3.11477839567299 5.1992049663409325
v 1.5859577148226882 4.8619649932014735 5.1992049663409325
v -0.1612288827057955 4.8619649932014735 5.1992049663409325
v -0.9862925202476663 0.24841528308574345 2.6935912968527203
v -0.08870501465869973 0.24841528308574345 2.6935912968527203
v -0.08870501465869973 1.1460027886747102 2.6935912968527203
v -0.9862925202476663 1.1460027886747102 2.6935912968527203
v -0.9862925202476663 0.24841528308574345 3.591178802441687
v -0.08870501465869973 0.24841528308574345 3.591178802441687
v -0.08870501465869973 1.1460027886747102 3.591178802441687
v -0.9862925202476663 1.1460027886747102 3.591178802441687
v -3.810640143703078 -2.192559762501374 -0.11064857106134929
v -1.9880762432041932 -2.192559762501374 -0.11064857106134929
v -1.9880762432041932 -0.36999586200248913 -0.11064857106134929
v -3.810640143703078 -0.36999586200248913 -0.11064857106134929
v -3.810640143703078 -2.192559762501374 1.7119153294375358
v -1.9880762432041932 -2.192559762501374 1.7119153294375358
v -1.9880762432041932 -0.36999586200248913 1.7119153294375358
v -3.810640143703078 -0.36999586200248913 1.7119153294375358
v -2.9317505686797327 -2.7705680755683613 -0.29912673611497276
v -1.0536564890604536 -2.7705680755683613 -0.29912673611497276
v -1.0536564890604536 -0.8924739959490822 -0.29912673611497276
v -2.9317505686797327 -0.8924739959490822 -0.29912673611497276
v -2.9317505686797327 -2.7705680755683613 1.5789673435043063
v -1.0536564890604536 -2.7705680755683613 1.5789673435043063
v -1.0536564890604536 -0.8924739959490822 1.5789673435043063
v -2.9317505686797327 -0.8924739959490822 1.5789673435043063
v -3.2460364928017356 1.5802875390909905 1.7112399145134958
v -2.0444422408865925 1.5802875390909905 1.7112399145134958
v -2.0444422408865925 2.7818817910061338 1.7112399145134958
v -3.2460364928017356 2.7818817910061338 1.7112399145134958
v -3.2460364928017356 1.5802875390909905 2.912834166428639
v -2.0444422408865925 1.5802875390909905 2.912834166428639
v -2.0444422408865925 2.7818817910061338 2.912834166428639
v -3.2460364928017356 2.7818817910061338 2.912834166428639
f 1 2 5
f 2 3 5
f 3 4 5
f 4 1 5
f 1 2 3
f 3 4 1
f 6 7 8
f 8 9 6
f 10 11 12
f 12 13 10
f 6 7 11
f 11 10 6
f 7 8 12
f 12 11 7
f 8 9 13
f 13 12 8
f 9 6 10
f 10 13 9
f 14 15 16
f 16 17 14
f 18 19 20
f 20 21 18
f 14 15 19
f 19 18 14
f 15 16 20
f 20 19 15
f 16 17 21
f 21 20 16
f 17 14 18
f 18 21 17
f 22 23 24
f 24 25 22
f 26 27 28
f 28 29 26
f 22 23 27
f 27 26 22
f 23 24 28
f 28 27 23
f 24 25 29
f 29 28 24
f 25 22 26
f 26 29 25
f 30 31 32
f 32 33 30
f 34 35 36
f 36 37 34
f 30 31 35
f 35 34 30
f 31 32 36
f 36 35 31
f 32 33 37
f 37 36 32
f 33 30 34
f 34 37 33
f 38 39 40
f 40 41 38
f 42 43 44
f 44 45 42
f 38 39 43
f 43 42 38
f 39 40 44
f 44 43 39
f 40 41 45
f 45 44 40
f 41 38 42
f 42 45 41
